<?xml version="1.0" standalone="no"?>
<!DOCTYPE svg PUBLIC "-//W3C//DTD SVG 20010904//EN"
 "http://www.w3.org/TR/2001/REC-SVG-20010904/DTD/svg10.dtd">
<svg version="1.0" xmlns="http://www.w3.org/2000/svg"
 width="456.000000pt" height="500.000000pt" viewBox="0 0 456.000000 500.000000"
 preserveAspectRatio="xMidYMid meet">

<g transform="translate(0.000000,500.000000) scale(0.100000,-0.100000)"
fill="#000000" stroke="none">
<path d="M1930 4321 c-8 -5 -40 -16 -70 -26 -30 -9 -69 -23 -87 -31 -17 -8
-34 -14 -38 -14 -14 0 -146 -71 -228 -122 -229 -143 -503 -418 -652 -653 -263
-415 -341 -961 -206 -1435 12 -41 28 -89 36 -107 8 -17 15 -34 15 -38 0 -15
57 -125 104 -200 100 -160 273 -343 432 -457 75 -53 288 -168 313 -168 6 0 19
-4 29 -9 9 -6 50 -20 90 -31 39 -12 72 -26 72 -32 0 -5 -27 -39 -60 -75 -57
-62 -60 -69 -60 -116 l0 -50 23 20 c12 11 33 30 47 43 41 37 163 126 199 144
21 12 45 16 65 12 17 -3 85 -6 151 -7 106 -1 126 -4 175 -27 78 -36 170 -95
282 -179 l97 -73 103 0 102 0 -66 43 c-37 23 -133 87 -214 141 -165 111 -166
114 -55 137 31 6 65 15 76 19 11 4 47 16 80 25 33 9 83 28 111 41 28 13 55 24
60 24 13 0 11 53 -2 67 -12 13 -104 6 -257 -19 -70 -12 -144 -5 -327 28 -199
36 -425 145 -615 298 -27 22 -104 94 -171 161 -208 209 -316 399 -413 730 -56
190 -83 619 -52 805 48 287 143 488 309 659 120 122 245 209 372 256 25 9 54
21 65 25 46 20 131 40 171 40 24 0 46 5 49 10 3 6 17 10 30 10 38 0 40 35 9
123 -7 18 -65 23 -94 8z"/>
<path d="M3351 2884 c9 -11 19 -27 22 -36 9 -24 27 -23 27 2 0 12 -12 26 -32
36 -32 16 -33 16 -17 -2z"/>
<path d="M1161 2877 c-8 -10 -11 -50 -9 -123 l3 -109 45 -3 c25 -1 40 1 33 6
-8 5 -13 46 -15 122 -3 108 -4 115 -24 118 -11 2 -26 -4 -33 -11z"/>
<path d="M1368 2805 c-4 -175 -7 -160 27 -160 l30 0 0 115 c0 115 -4 130 -37
130 -16 0 -18 -11 -20 -85z"/>
<path d="M1617 2884 c-4 -4 -7 -61 -7 -126 l0 -119 28 3 c25 3 27 7 32 58 3
30 3 84 0 120 -4 56 -8 65 -25 68 -12 2 -24 0 -28 -4z"/>
<path d="M1857 2884 c-4 -4 -6 -59 -5 -123 1 -105 2 -109 7 -44 3 39 9 75 13
79 7 7 28 -36 28 -59 1 -28 29 -92 43 -95 9 -2 19 9 26 29 16 45 14 79 -4 79
-8 0 -15 8 -15 18 0 9 -8 40 -18 67 -14 40 -23 51 -43 53 -14 2 -28 0 -32 -4z"/>
<path d="M2015 2858 c-8 -20 -10 -39 -5 -49 5 -8 12 -50 16 -92 6 -72 8 -77
30 -77 24 0 24 0 24 125 l0 125 -25 0 c-20 0 -29 -8 -40 -32z"/>
<path d="M2163 2884 c-9 -4 -13 -36 -13 -109 0 -121 4 -135 36 -135 27 0 28 7
26 170 -1 65 -3 75 -19 77 -10 1 -24 -1 -30 -3z"/>
<path d="M2747 2883 c-4 -3 -7 -49 -7 -100 0 -86 2 -96 25 -118 19 -20 34 -25
72 -24 44 1 45 2 19 9 -39 12 -46 25 -46 91 0 31 -3 77 -6 103 -6 39 -10 46
-29 46 -12 0 -25 -3 -28 -7z"/>
<path d="M2922 2788 c-1 -59 -6 -110 -12 -113 -5 -3 -10 -11 -10 -16 0 -6 7
-4 15 5 13 12 15 36 12 123 l-3 108 -2 -107z"/>
<path d="M2992 2763 c2 -121 2 -124 7 -44 7 98 7 98 81 -12 37 -56 50 -67 72
-67 l28 0 -2 128 c-1 115 -2 119 -7 48 -4 -45 -11 -81 -17 -83 -6 -2 -33 29
-60 69 -54 81 -61 88 -86 88 -16 0 -18 -12 -16 -127z"/>
<path d="M1488 2868 c17 -17 15 -78 -5 -100 -15 -17 -15 -18 1 -18 21 0 58 19
68 34 13 19 9 64 -8 80 -8 9 -27 16 -42 16 -20 0 -23 -3 -14 -12z"/>
<path d="M1733 2863 c21 -24 22 -49 3 -85 -17 -31 -8 -35 33 -13 57 29 44 107
-19 113 -33 3 -34 3 -17 -15z"/>
<path d="M2278 2868 c15 -15 16 -84 2 -93 -15 -9 -12 -25 4 -25 29 0 66 41 66
74 0 40 -15 56 -54 56 -23 0 -27 -3 -18 -12z"/>
<path d="M3242 2868 c-7 -7 -12 -26 -12 -44 0 -36 33 -70 89 -94 40 -16 53
-56 25 -78 -18 -13 -17 -14 11 -8 37 9 55 31 55 69 0 34 -45 81 -87 92 -39 9
-53 23 -53 51 0 26 -10 30 -28 12z"/>
<path d="M3670 2741 c0 -13 -10 -20 -31 -25 l-32 -6 7 -77 c3 -42 6 -127 6
-190 l0 -113 25 0 c20 0 25 -5 25 -27 0 -20 3 -24 12 -15 16 16 53 -4 39 -22
-15 -17 31 -40 47 -24 8 8 16 8 27 -2 10 -8 29 -10 54 -6 27 4 41 2 44 -7 3
-6 5 -3 4 9 -1 15 -6 19 -22 16 -12 -2 -28 5 -39 17 -23 25 -13 40 14 23 42
-26 105 -5 85 28 -3 4 2 10 10 14 8 3 15 16 15 29 0 13 3 27 8 31 20 21 56
317 40 327 -6 4 -8 14 -5 23 6 14 -6 16 -91 16 -69 0 -104 -4 -118 -14 -10 -8
-23 -11 -29 -7 -5 5 -29 11 -52 15 -38 5 -43 4 -43 -13z m310 0 c0 -11 -86
-25 -100 -16 -24 15 -6 25 45 25 30 0 55 -4 55 -9z m-330 -391 c0 -5 -4 -10
-10 -10 -5 0 -10 5 -10 10 0 6 5 10 10 10 6 0 10 -4 10 -10z m118 -26 c6 -2
12 -9 12 -15 0 -8 -4 -8 -12 -1 -7 6 -26 12 -42 14 -16 1 -31 8 -33 15 -3 9 4
9 29 1 18 -6 39 -12 46 -14z"/>
<path d="M2500 2735 c0 -11 11 -15 40 -15 29 0 40 4 40 15 0 11 -11 15 -40 15
-29 0 -40 -4 -40 -15z"/>
<path d="M3227 2704 c-11 -11 15 -52 37 -58 35 -10 42 -6 16 7 -14 7 -26 23
-28 35 -3 22 -13 28 -25 16z"/>
<path d="M3670 2260 c0 -5 5 -10 11 -10 5 0 7 5 4 10 -3 6 -8 10 -11 10 -2 0
-4 -4 -4 -10z"/>
<path d="M3782 2221 c2 -7 7 -12 11 -12 12 1 9 15 -3 20 -7 2 -11 -2 -8 -8z"/>
<path d="M2212 2184 c-7 -8 -8 -14 -3 -14 10 0 25 19 20 25 -2 1 -10 -3 -17
-11z"/>
<path d="M3930 629 c-122 -113 -185 -157 -262 -180 -67 -21 -82 -21 -384 -15
-173 4 -314 4 -314 -1 0 -9 164 -155 238 -212 146 -112 327 -91 493 57 60 55
196 192 273 277 32 35 36 46 36 93 0 28 -1 52 -2 52 -2 -1 -37 -32 -78 -71z"/>
<path d="M3121 584 c0 -11 3 -14 6 -6 3 7 2 16 -1 19 -3 4 -6 -2 -5 -13z"/>
<path d="M3492 580 c0 -14 2 -19 5 -12 2 6 2 18 0 25 -3 6 -5 1 -5 -13z"/>
<path d="M3072 550 c0 -19 2 -27 5 -17 2 9 2 25 0 35 -3 9 -5 1 -5 -18z"/>
<path d="M3597 568 c-2 -7 -1 -22 4 -33 6 -16 8 -14 8 13 1 33 -4 41 -12 20z"/>
<path d="M3271 484 c0 -11 3 -14 6 -6 3 7 2 16 -1 19 -3 4 -6 -2 -5 -13z"/>
</g>
</svg>
